<?xml version="1.0" encoding="UTF-8"?>
<svg version="1.1" xmlns="http://www.w3.org/2000/svg" width="132" height="110">
<path d="M0 0 C1.28698792 0.01904892 1.28698792 0.01904892 2.59997559 0.03848267 C5.00613686 0.07749756 7.41086732 0.13659097 9.81640625 0.203125 C10.50769119 0.21270737 11.19897614 0.22228973 11.91120911 0.23216248 C17.54710301 0.43286763 21.50419407 2.07795163 25.75 5.75 C29.09418052 9.71347321 28.76849912 14.06459489 28.72265625 19.015625 C28.32457458 22.83284654 27.01865665 24.95374696 24.4375 27.75 C21.28105887 29.74318373 18.8859155 29.97232672 15.1875 29.875 C14.29546875 29.85695313 13.4034375 29.83890625 12.484375 29.8203125 C11.47117188 29.78550781 11.47117188 29.78550781 10.4375 29.75 C8.84611915 33.92737474 8.22471942 37.28160785 8.4375 41.75 C9.283125 41.79125 10.12875 41.8325 11 41.875 C16.04971559 43.16038215 19.69382541 46.17490441 22.6171875 50.4921875 C23.77865967 53.68900138 23.72387771 56.67099313 23.8125 60.0625 C24.01352036 66.12953427 24.01352036 66.12953427 26.5 71.5625 C29.18277803 75.97610257 29.26027553 79.70530562 28.4375 84.75 C26.72765853 88.29633786 25.65240439 90.16102333 22.09561157 91.8853302 C19.44352393 92.74804045 17.37218635 93.02927987 14.59521484 93.0847168 C13.18005081 93.11927223 13.18005081 93.11927223 11.73629761 93.15452576 C10.71730377 93.16927444 9.69830994 93.18402313 8.6484375 93.19921875 C7.57232208 93.2215004 6.49620667 93.24378204 5.38748169 93.26673889 C1.8625848 93.33518303 -1.66229344 93.38769014 -5.1875 93.4375 C-6.38624756 93.45679565 -7.58499512 93.47609131 -8.82006836 93.49597168 C-25.57102125 93.76006076 -42.31218733 93.81265535 -59.0625 93.5 C-59.97010071 93.48730072 -60.87770142 93.47460144 -61.81280518 93.46151733 C-64.36542721 93.42245224 -66.9167106 93.36329504 -69.46875 93.296875 C-70.57607986 93.28250145 -70.57607986 93.28250145 -71.70578003 93.26783752 C-76.35326922 93.11272624 -79.6183175 92.21766481 -83.5625 89.75 C-88.12297875 83.98939526 -88.22546013 78.91765587 -87.5625 71.75 C-86.91995171 67.25805693 -86.0303391 62.84020552 -85.03955078 58.41357422 C-84.22784163 53.88146224 -84.37800565 49.34263388 -84.375 44.75 C-84.36275391 43.76515625 -84.35050781 42.7803125 -84.33789062 41.765625 C-84.33595703 40.81171875 -84.33402344 39.8578125 -84.33203125 38.875 C-84.32792236 38.01132812 -84.32381348 37.14765625 -84.31958008 36.2578125 C-84.59170155 33.44853438 -85.434845 31.32430871 -86.5625 28.75 C-87.15854479 25.76977605 -87.36170606 22.78058765 -87.5625 19.75 C-87.62824219 18.82058594 -87.69398437 17.89117188 -87.76171875 16.93359375 C-87.94313719 12.33557473 -87.8720078 9.40340536 -85.875 5.1875 C-82.94373417 2.09778737 -80.37630259 0.96434577 -76.14910889 0.46479797 C-74.88565643 0.44028816 -74.88565643 0.44028816 -73.59667969 0.4152832 C-72.14192986 0.38072777 -72.14192986 0.38072777 -70.65779114 0.34547424 C-69.61056381 0.33072556 -68.56333649 0.31597687 -67.484375 0.30078125 C-65.82863716 0.26735878 -65.82863716 0.26735878 -64.13945007 0.23326111 C-60.53056132 0.16487414 -56.92168956 0.11235044 -53.3125 0.0625 C-52.08685333 0.04320435 -50.86120667 0.02390869 -49.59841919 0.00402832 C-33.06230883 -0.25134312 -16.53526798 -0.3260362 0 0 Z " fill="#0D141E" transform="translate(95.5625,8.25)"/>
<path d="M0 0 C0.87205078 0.02707031 1.74410156 0.05414062 2.64257812 0.08203125 C3.90038086 0.14197266 3.90038086 0.14197266 5.18359375 0.203125 C5.9511499 0.23567383 6.71870605 0.26822266 7.50952148 0.30175781 C10.06790031 0.86034784 11.01277821 1.66066773 12.5625 3.75 C12.5625 4.74 12.5625 5.73 12.5625 6.75 C11.5725 7.41 10.5825 8.07 9.5625 8.75 C9.1613473 11.44819107 9.1613473 11.44819107 9.3046875 14.60546875 C9.31886719 15.78560547 9.33304688 16.96574219 9.34765625 18.18164062 C9.37730469 19.42107422 9.40695313 20.66050781 9.4375 21.9375 C9.69101482 36.05231042 9.69101482 36.05231042 8.5625 42.75 C8.93137653 46.05714584 8.93137653 46.05714584 9.5625 48.75 C5.63647706 50.2668725 3.56310906 50.84979843 -0.4375 49.75 C-3.02229038 49.53258773 -5.60556052 49.37257226 -8.1953125 49.2265625 C-10.4375 48.75 -10.4375 48.75 -12.4375 45.75 C-11.4475 45.09 -10.4575 44.43 -9.4375 43.75 C-9.03784868 40.87312066 -8.82975462 38.20224722 -8.75 35.3125 C-8.71656494 34.47807373 -8.68312988 33.64364746 -8.64868164 32.78393555 C-8.32451194 23.77538593 -8.34666772 14.76258027 -8.4375 5.75 C-9.7575 5.09 -11.0775 4.43 -12.4375 3.75 C-12.1075 2.76 -11.7775 1.77 -11.4375 0.75 C-7.90503849 -1.01623075 -3.87216215 -0.18805203 0 0 Z " fill="#AFAFAF" transform="translate(82.4375,29.25)"/>
<path d="M0 0 C2 0.9375 2 0.9375 3.25 3.4375 C4.34638842 8.55397929 4.51244115 13.48917008 3.4375 18.625 C2.87828621 21.58084432 3.49813131 23.98902142 4 26.9375 C3.625 28.875 3.625 28.875 3 30.9375 C1.76954546 36.23471817 1.76954546 36.23471817 4 40.9375 C4.70381157 42.92473268 5.3711811 44.92527953 6 46.9375 C6.33 47.9275 6.66 48.9175 7 49.9375 C-11.21428571 52.79464286 -11.21428571 52.79464286 -17 48.9375 C-16.67 47.2875 -16.34 45.6375 -16 43.9375 C-15.34 43.9375 -14.68 43.9375 -14 43.9375 C-14 31.3975 -14 18.8575 -14 5.9375 C-14.66 5.9375 -15.32 5.9375 -16 5.9375 C-16 4.2875 -16 2.6375 -16 0.9375 C-14.73542969 0.95490234 -14.73542969 0.95490234 -13.4453125 0.97265625 C-12.34960938 0.98167969 -11.25390625 0.99070312 -10.125 1 C-8.48917969 1.01740234 -8.48917969 1.01740234 -6.8203125 1.03515625 C-4.16615312 0.94325322 -2.5592503 -0.07997657 0 0 Z " fill="#888888" transform="translate(37,30.0625)"/>
<path d="M0 0 C6.87616695 0.0248686 11.57124995 0.49197122 16.66015625 5.33203125 C19.31456289 8.63649666 20.34758134 11.12506616 19.9375 15.375 C19.29362587 20.2442981 17.42582869 22.57417131 14 26 C14.78375 26.45375 15.5675 26.9075 16.375 27.375 C20.09558679 31.09558679 20.34962042 34.91344923 21 40 C21.99 40 22.98 40 24 40 C24.66 41.32 25.32 42.64 26 44 C22.64 48.68 22.64 48.68 20.25 49.875 C14.97570583 50.16801634 11.26392802 49.62047375 6.5625 47.3125 C3.34358334 44.3877854 3.53794096 41.10815776 3.3125 36.9375 C3.30863281 35.72964844 3.30476563 34.52179688 3.30078125 33.27734375 C2.9768754 29.74803201 2.27109244 28.60330011 0 26 C0.2465824 23.53417604 1.14738552 21.65610044 2.125 19.375 C3.30563299 14.82112991 3.02279808 10.58609462 2 6 C1.34 5.34 0.68 4.68 0 4 C0 2.68 0 1.36 0 0 Z " fill="#8A8B8B" transform="translate(42,31)"/>
<path d="M0 0 C11.83036837 -0.04626688 23.66071534 -0.08184039 35.49115562 -0.10362434 C40.98404503 -0.11407763 46.4768727 -0.12826493 51.96972656 -0.15087891 C57.26705154 -0.1725523 62.56431701 -0.18455698 67.86168289 -0.18975449 C69.88636843 -0.19346016 71.91105059 -0.20069604 73.93571091 -0.21146011 C76.76369102 -0.22590194 79.59142276 -0.22798102 82.41943359 -0.22705078 C83.26316025 -0.23424133 84.1068869 -0.24143188 84.97618103 -0.24884033 C90.77189568 -0.22810432 90.77189568 -0.22810432 93 2 C92.625 4.625 92.625 4.625 92 7 C80.31730774 7.0694358 68.63466437 7.12277861 56.95180798 7.15543652 C51.52728691 7.17110874 46.10290675 7.19237547 40.6784668 7.22631836 C35.44596784 7.2588562 30.21360464 7.27684128 24.98101234 7.28463173 C22.98226089 7.29018527 20.98351706 7.30102965 18.98482323 7.31719017 C16.19048234 7.33889032 13.39670618 7.34197004 10.60229492 7.34057617 C9.77151428 7.351362 8.94073364 7.36214783 8.08477783 7.3732605 C2.48468853 7.34292849 2.48468853 7.34292849 0.20140553 5.72745228 C-1 4 -1 4 -0.6875 1.8125 C-0.460625 1.214375 -0.23375 0.61625 0 0 Z " fill="#8B8B8B" transform="translate(20,20)"/>
<path d="M0 0 C11.96075236 -0.04626639 23.92148356 -0.08184014 35.88230705 -0.10362434 C41.43573026 -0.11407774 46.98909241 -0.12826523 52.54248047 -0.15087891 C57.89816008 -0.17255192 63.25378082 -0.1845569 68.60950089 -0.18975449 C70.65651502 -0.19346023 72.7035258 -0.20069624 74.75051498 -0.21146011 C77.60962733 -0.22590142 80.46849399 -0.22798104 83.32763672 -0.22705078 C84.60725281 -0.23783661 84.60725281 -0.23783661 85.91271973 -0.24884033 C91.77189568 -0.22810432 91.77189568 -0.22810432 94 2 C94 3.32 94 4.64 94 6 C82.1869024 6.04628986 70.37382629 6.08185215 58.56065655 6.10362434 C53.0756428 6.11407258 47.59069099 6.12825077 42.10571289 6.15087891 C36.81486716 6.17257017 31.5240811 6.18456079 26.23319435 6.18975449 C24.21212639 6.19345693 22.19106179 6.20068664 20.17001915 6.21146011 C17.34463759 6.2259256 14.51950428 6.22798001 11.6940918 6.22705078 C10.43389473 6.23783661 10.43389473 6.23783661 9.14823914 6.24884033 C5.24301568 6.23489311 3.32482088 6.21654725 0 4 C0 2.68 0 1.36 0 0 Z " fill="#737374" transform="translate(19,84)"/>
<path d="M0 0 C2 0.9375 2 0.9375 3.25 3.4375 C4.1642902 7.70418758 4.77284527 11.6063463 4 15.9375 C1.9375 18.625 1.9375 18.625 -1 20.9375 C-2.21221507 21.97464681 -3.42042524 23.01648922 -4.625 24.0625 C-5.19476563 24.53945313 -5.76453125 25.01640625 -6.3515625 25.5078125 C-7.97983302 26.9200092 -9.49313332 28.3973324 -11 29.9375 C-11.66 30.5975 -12.32 31.2575 -13 31.9375 C-13 28.3075 -13 24.6775 -13 20.9375 C-12.01 20.9375 -11.02 20.9375 -10 20.9375 C-9.67 19.6175 -9.34 18.2975 -9 16.9375 C-9.99 17.2675 -10.98 17.5975 -12 17.9375 C-12.144375 16.7 -12.28875 15.4625 -12.4375 14.1875 C-12.78688502 11.37245501 -13.20379366 8.6673503 -14 5.9375 C-14.66 5.9375 -15.32 5.9375 -16 5.9375 C-16 4.2875 -16 2.6375 -16 0.9375 C-14.73542969 0.95490234 -14.73542969 0.95490234 -13.4453125 0.97265625 C-12.34960938 0.98167969 -11.25390625 0.99070312 -10.125 1 C-8.48917969 1.01740234 -8.48917969 1.01740234 -6.8203125 1.03515625 C-4.16615312 0.94325322 -2.5592503 -0.07997657 0 0 Z " fill="#7D7D7E" transform="translate(37,30.0625)"/>
<path d="M0 0 C6.87616695 0.0248686 11.57124995 0.49197122 16.66015625 5.33203125 C18.62117436 7.77329869 20 9.88647373 20 13.0625 C19 15 19 15 16.5 16.1875 C11.40433325 18.82632742 7.90865161 22.85682929 4 27 C3.34 26.34 2.68 25.68 2 25 C1.67 25 1.34 25 1 25 C1 22 1 22 2.0625 19.4375 C3.31345128 14.85067863 3.03330259 10.63319547 2 6 C1.34 5.34 0.68 4.68 0 4 C0 2.68 0 1.36 0 0 Z " fill="#8F8F8F" transform="translate(42,31)"/>
<path d="M0 0 C0.87205078 0.02707031 1.74410156 0.05414062 2.64257812 0.08203125 C3.90038086 0.14197266 3.90038086 0.14197266 5.18359375 0.203125 C5.9511499 0.23567383 6.71870605 0.26822266 7.50952148 0.30175781 C10.06790031 0.86034784 11.01277821 1.66066773 12.5625 3.75 C12.5625 4.74 12.5625 5.73 12.5625 6.75 C8.21964286 10.75 8.21964286 10.75 5.5625 10.75 C4.03065815 12.32544266 2.56028114 13.96111086 1.125 15.625 C-1.33888204 18.47449784 -3.29393359 20.65428906 -6.4375 22.75 C-8.28881483 18.82142246 -8.65754943 15.76224888 -8.5625 11.4375 C-8.54445313 10.36886719 -8.52640625 9.30023438 -8.5078125 8.19921875 C-8.47300781 6.98685547 -8.47300781 6.98685547 -8.4375 5.75 C-9.7575 5.09 -11.0775 4.43 -12.4375 3.75 C-12.1075 2.76 -11.7775 1.77 -11.4375 0.75 C-7.90503849 -1.01623075 -3.87216215 -0.18805203 0 0 Z " fill="#A2A2A3" transform="translate(82.4375,29.25)"/>
<path d="M0 0 C0.33 0 0.66 0 1 0 C1.02720824 2.68756955 1.0469388 5.37485798 1.0625 8.0625 C1.07087891 8.81466797 1.07925781 9.56683594 1.08789062 10.34179688 C1.10805615 15.00003402 0.68580731 19.3822308 0 24 C0.36887653 27.30714584 0.36887653 27.30714584 1 30 C-2.92602294 31.5168725 -4.99939094 32.09979843 -9 31 C-11.58479038 30.78258773 -14.16806052 30.62257226 -16.7578125 30.4765625 C-19 30 -19 30 -21 27 C-19.7625 26.566875 -18.525 26.13375 -17.25 25.6875 C-14.09443047 24.50695892 -11.51540927 23.30579183 -9 21 C-9 20.67 -9 20.34 -9 20 C-9.66 20 -10.32 20 -11 20 C-9.93277615 17.08938949 -9.36086255 16.17140971 -6.5 14.8125 C-5.675 14.544375 -4.85 14.27625 -4 14 C-3.34 13.67 -2.68 13.34 -2 13 C-1.30662208 9.9600352 -1.30662208 9.9600352 -0.875 6.4375 C-0.70742187 5.23996094 -0.53984375 4.04242188 -0.3671875 2.80859375 C-0.24601562 1.88175781 -0.12484375 0.95492187 0 0 Z " fill="#8E8F8F" transform="translate(91,48)"/>
<path d="M0 0 C11.88 0 23.76 0 36 0 C35.34 0.66 34.68 1.32 34 2 C34.495 3.485 34.495 3.485 35 5 C20.81 5 6.62 5 -8 5 C-8.33 4.34 -8.66 3.68 -9 3 C-5.92382812 2.70703125 -5.92382812 2.70703125 -2.84765625 2.4140625 C-2.23792969 2.27742188 -1.62820312 2.14078125 -1 2 C-0.67 1.34 -0.34 0.68 0 0 Z " fill="#4E4F50" transform="translate(39,85)"/>
<path d="M0 0 C4 2 4 2 6 4 C5.76925987 5.94480963 5.53073593 7.88953427 5.2265625 9.82421875 C4.89185755 13.03854047 5.4063578 15.83390827 6 19 C3 19 3 19 1.1875 18.5 C-1.12432358 17.87091978 -1.12432358 17.87091978 -4.0625 18.125 C-7 18 -7 18 -8.875 16.625 C-10 15 -10 15 -10 13 C-9.360625 12.896875 -8.72125 12.79375 -8.0625 12.6875 C-7.0415625 12.3471875 -7.0415625 12.3471875 -6 12 C-5.67 11.01 -5.34 10.02 -5 9 C-4.34 9 -3.68 9 -3 9 C-2.01 6.03 -1.02 3.06 0 0 Z " fill="#9E9E9E" transform="translate(102,61)"/>
<path d="M0 0 C0.81919922 -0.00773437 1.63839844 -0.01546875 2.48242188 -0.0234375 C8.55906792 -0.00343208 8.55906792 -0.00343208 10.8125 2.25 C10.4825 3.9 10.1525 5.55 9.8125 7.25 C0.2425 7.25 -9.3275 7.25 -19.1875 7.25 C-18.1875 5.25 -18.1875 5.25 -15.1875 4.25 C-14.8575 3.59 -14.5275 2.93 -14.1875 2.25 C-9.63815175 -0.28833969 -5.05935701 -0.04845354 0 0 Z " fill="#8E8E8F" transform="translate(102.1875,19.75)"/>
<path d="M0 0 C0.33 0 0.66 0 1 0 C1.33 2.31 1.66 4.62 2 7 C3.32 6.34 4.64 5.68 6 5 C4.66666667 7.66666667 3.33333333 10.33333333 2 13 C1.67 13 1.34 13 1 13 C1 14.98 1 16.96 1 19 C4.29143872 16.63016412 7.29824108 14.00692002 10.31640625 11.3046875 C12 10 12 10 15 9 C15.75 10.625 15.75 10.625 16 13 C12.9952883 18.63383444 8.28722139 24.95088679 2.0625 26.9375 C1.381875 26.958125 0.70125 26.97875 0 27 C-3.47042756 20.05914488 -0.98902556 7.50599754 0 0 Z " fill="#888888" transform="translate(24,40)"/>
<path d="M0 0 C22.77 0 45.54 0 69 0 C69 0.33 69 0.66 69 1 C52.83 1 36.66 1 20 1 C19.67 1.99 19.34 2.98 19 4 C16.69 4.33 14.38 4.66 12 5 C12 5.33 12 5.66 12 6 C10.5629191 6.05422947 9.12524538 6.09289723 7.6875 6.125 C6.88699219 6.14820312 6.08648437 6.17140625 5.26171875 6.1953125 C3 6 3 6 0 4 C0 2.68 0 1.36 0 0 Z " fill="#B4B5B6" transform="translate(19,84)"/>
<path d="M0 0 C0.66 0.33 1.32 0.66 2 1 C2 2.32 2 3.64 2 5 C2.55429688 4.62746094 3.10859375 4.25492188 3.6796875 3.87109375 C4.40414062 3.39800781 5.12859375 2.92492188 5.875 2.4375 C6.59429687 1.96183594 7.31359375 1.48617187 8.0546875 0.99609375 C8.69664063 0.66738281 9.33859375 0.33867188 10 0 C10.66 0.33 11.32 0.66 12 1 C11.34 1.66 10.68 2.32 10 3 C10.66 4.32 11.32 5.64 12 7 C10.35 8.98 8.7 10.96 7 13 C8.32 13.33 9.64 13.66 11 14 C9.576875 14.928125 9.576875 14.928125 8.125 15.875 C5.05554891 17.81970969 5.05554891 17.81970969 3 20 C1.68 19.67 0.36 19.34 -1 19 C-0.67 12.73 -0.34 6.46 0 0 Z " fill="#9D9D9E" transform="translate(74,54)"/>
<path d="M0 0 C10.15317287 0.35010941 10.15317287 0.35010941 13.6875 3.0625 C14.120625 3.701875 14.55375 4.34125 15 5 C14.21625 5.886875 13.4325 6.77375 12.625 7.6875 C10.39882353 10.33771009 9.27157645 12.77867299 8 16 C5.875 18.3125 5.875 18.3125 4 20 C3.40259533 16.58625901 2.91462786 13.19582265 2.5625 9.75 C2.37695757 5.98069686 2.37695757 5.98069686 0 4 C0 2.68 0 1.36 0 0 Z " fill="#909091" transform="translate(42,31)"/>
<path d="M0 0 C0.66 0.66 1.32 1.32 2 2 C2.99 2 3.98 2 5 2 C5.66 3.32 6.32 4.64 7 6 C3.64 10.68 3.64 10.68 1.25 11.875 C-4.21577243 12.17865402 -8.2580958 11.98582271 -12.5 8.4375 C-13.325 7.633125 -14.15 6.82875 -15 6 C-14.443125 5.896875 -13.88625 5.79375 -13.3125 5.6875 C-10.55823422 4.86866423 -8.41272343 3.54146219 -6 2 C-6.33 2.61875 -6.66 3.2375 -7 3.875 C-8.14193235 5.91018344 -8.14193235 5.91018344 -8 8 C-5.47636012 7.37466625 -5.47636012 7.37466625 -3 6 C-2.26259783 3.48051222 -2.26259783 3.48051222 -2 1 C-1.34 0.67 -0.68 0.34 0 0 Z " fill="#6E6E6E" transform="translate(61,69)"/>
<path d="M0 0 C7.92 0 15.84 0 24 0 C23.34 0.66 22.68 1.32 22 2 C21.01 2 20.02 2 19 2 C18.67 2.99 18.34 3.98 18 5 C15.12777042 6.90009034 12.83993171 7.25082783 9.4375 7.1875 C8.67308594 7.18105469 7.90867187 7.17460937 7.12109375 7.16796875 C4.23946275 6.93977329 1.73544379 5.9118146 -1 5 C-0.01 4.01 0.98 3.02 2 2 C1.34 1.34 0.68 0.68 0 0 Z " fill="#A6A7A7" transform="translate(69,20)"/>
<path d="M0 0 C1.1875 1.6875 1.1875 1.6875 2 4 C0.42536072 7.48078157 -0.78882551 8.85921701 -4 11 C-4.99 11 -5.98 11 -7 11 C-7.33 11.99 -7.66 12.98 -8 14 C-10.5625 15.1875 -10.5625 15.1875 -13 16 C-14.32 14.02 -15.64 12.04 -17 10 C-15.68 9.01 -14.36 8.02 -13 7 C-13.33 8.32 -13.66 9.64 -14 11 C-13.55269531 10.61328125 -13.10539062 10.2265625 -12.64453125 9.828125 C-2.9439528 1.4719764 -2.9439528 1.4719764 0 0 Z " fill="#7D7D7E" transform="translate(59,46)"/>
<path d="M0 0 C2.52284412 1.55524728 3.81312063 2.37599476 4.6796875 5.26953125 C5.07417814 10.40579938 5.02785075 14.15568988 3 19 C2.63893903 20.66088045 2.29537827 22.32618981 2 24 C1.34 24 0.68 24 0 24 C0 24.99 0 25.98 0 27 C-0.66 27 -1.32 27 -2 27 C-2.042721 25.33388095 -2.04063832 23.66617115 -2 22 C-1.67 21.67 -1.34 21.34 -1 21 C-1.165 19.865625 -1.33 18.73125 -1.5 17.5625 C-2 14 -2 14 -1 12 C-0.95485864 10.14638292 -0.96132958 8.29126337 -1 6.4375 C-1.03770315 4.62539219 -1.04653361 2.81190256 -1 1 C-0.67 0.67 -0.34 0.34 0 0 Z " fill="#19212B" transform="translate(41,34)"/>
<path d="M0 0 C4.49652778 -0.36458333 4.49652778 -0.36458333 6.8125 1.3125 C8 3 8 3 8 6 C3.65714286 10 3.65714286 10 1 10 C-0.53184185 11.57544266 -2.00221886 13.21111086 -3.4375 14.875 C-5.90138204 17.72449784 -7.85643359 19.90428906 -11 22 C-12 19 -12 19 -11.125 16.6875 C-8.49932273 13.36679051 -5.54527838 11.53019499 -1.9609375 9.33203125 C0.13158852 8.14397374 0.13158852 8.14397374 1 6 C1.66 6 2.32 6 3 6 C3 5.01 3 4.02 3 3 C2.01 3 1.02 3 0 3 C0 2.01 0 1.02 0 0 Z " fill="#A8A8A8" transform="translate(87,30)"/>
<path d="M0 0 C6.625 -0.25 6.625 -0.25 10 2 C9.01 2.99 8.02 3.98 7 5 C9.475 5.495 9.475 5.495 12 6 C12 6.33 12 6.66 12 7 C0.45 7 -11.1 7 -23 7 C-23 6.67 -23 6.34 -23 6 C-17.12272743 5.09580422 -11.58033824 4.99906338 -5.63671875 5.2578125 C-2.97019407 5.22632293 -2.97019407 5.22632293 -1.14453125 3.6171875 C0.19256302 2.05811831 0.19256302 2.05811831 0 0 Z " fill="#7D7E7F" transform="translate(62,20)"/>
<path d="M0 0 C1.39798828 -0.03867187 1.39798828 -0.03867187 2.82421875 -0.078125 C5.70760894 0.30210228 6.54574052 1.00462006 8.3125 3.25 C4.92666198 6.38107836 2.60140538 6.58550778 -1.9375 6.4375 C-3.55398437 6.39689453 -3.55398437 6.39689453 -5.203125 6.35546875 C-6.43289062 6.30326172 -6.43289062 6.30326172 -7.6875 6.25 C-8.0175 5.26 -8.3475 4.27 -8.6875 3.25 C-9.6775 2.59 -10.6675 1.93 -11.6875 1.25 C-7.79092997 0.40749837 -3.97456406 0.1054261 0 0 Z " fill="#9F9F9F" transform="translate(54.6875,19.75)"/>
<path d="M0 0 C0.66 0 1.32 0 2 0 C2.33 0.99 2.66 1.98 3 3 C3.99 2.34 4.98 1.68 6 1 C4.64389915 4.12375469 3.20543984 5.9310969 0.5625 8.0625 C-1.75218232 9.94724133 -3.9179559 11.85996024 -6 14 C-6.66 14.66 -7.32 15.32 -8 16 C-8 12.37 -8 8.74 -8 5 C-7.01 5 -6.02 5 -5 5 C-3.31288577 3.3540349 -1.6454378 1.68762851 0 0 Z " fill="#858586" transform="translate(32,46)"/>
<path d="M0 0 C0.33 0 0.66 0 1 0 C1.82791426 3.20816776 2.14234009 6.32522388 2.25 9.625 C2.28867187 10.75808594 2.28867187 10.75808594 2.328125 11.9140625 C1.91534332 14.53817459 1.08768395 15.40890107 -1 17 C-2.66666667 17 -4.33333333 17 -6 17 C-5.67 16.01 -5.34 15.02 -5 14 C-6.98 14.99 -6.98 14.99 -9 16 C-7.66338822 13.04912279 -6.15046114 10.91682966 -3.9375 8.5625 C-1.47729639 5.78504386 -0.23131898 3.81676309 0 0 Z " fill="#79797A" transform="translate(39,32)"/>
<path d="M0 0 C2.24658203 -0.34057617 2.24658203 -0.34057617 5.0078125 -0.29296875 C5.99394531 -0.28330078 6.98007812 -0.27363281 7.99609375 -0.26367188 C9.02863281 -0.23853516 10.06117187 -0.21339844 11.125 -0.1875 C12.68541016 -0.16719727 12.68541016 -0.16719727 14.27734375 -0.14648438 C16.85207627 -0.11105228 19.4257833 -0.06165221 22 0 C21.34 0.66 20.68 1.32 20 2 C20.33 2.99 20.66 3.98 21 5 C19.68 5 18.36 5 17 5 C17 4.34 17 3.68 17 3 C16.38253906 3.08378906 15.76507813 3.16757813 15.12890625 3.25390625 C9.17546317 3.96976927 3.93346811 3.86130989 -2 3 C-1.34 2.01 -0.68 1.02 0 0 Z " fill="#636363" transform="translate(53,85)"/>
<path d="M0 0 C2.39763185 2.39763185 2.34280586 3.33273498 2.625 6.625 C2.69976562 7.44226563 2.77453125 8.25953125 2.8515625 9.1015625 C2.92503906 10.04128906 2.92503906 10.04128906 3 11 C-0.92075023 12.51483531 -3.00436583 13.1164272 -7 12 C-8.74690919 11.7856066 -10.4974023 11.59892347 -12.25 11.4375 C-13.14203125 11.35371094 -14.0340625 11.26992187 -14.953125 11.18359375 C-15.96632813 11.09271484 -15.96632813 11.09271484 -17 11 C-17 10.67 -17 10.34 -17 10 C-16.32453125 9.97421875 -15.6490625 9.9484375 -14.953125 9.921875 C-9.29613659 9.70200545 -9.29613659 9.70200545 -4.5625 6.9375 C-4.046875 6.298125 -3.53125 5.65875 -3 5 C-2.01 5 -1.02 5 0 5 C0 3.35 0 1.7 0 0 Z " fill="#6D6E70" transform="translate(89,67)"/>
<path d="M0 0 C0.99 0 1.98 0 3 0 C3.33 1.32 3.66 2.64 4 4 C3.38125 4.2475 2.7625 4.495 2.125 4.75 C-1.96190777 7.15406339 -2.6227344 11.67145096 -4 16 C-6.64508959 13.35491041 -6.78233633 11.70028236 -7 8 C-5.75 5.1875 -5.75 5.1875 -4 3 C-3.01 2.67 -2.02 2.34 -1 2 C-0.67 1.34 -0.34 0.68 0 0 Z " fill="#858687" transform="translate(52,57)"/>
<path d="M0 0 C6.6 0 13.2 0 20 0 C20 0.33 20 0.66 20 1 C18.35 1 16.7 1 15 1 C15.33 1.99 15.66 2.98 16 4 C13.05613377 5.47193312 10.62609964 4.84936173 7.375 4.5625 C6.18648438 4.46066406 4.99796875 4.35882813 3.7734375 4.25390625 C2.85820313 4.17011719 1.94296875 4.08632812 1 4 C0.67 2.68 0.34 1.36 0 0 Z " fill="#8F9092" transform="translate(90,84)"/>
<path d="M0 0 C0 1.32 0 2.64 0 4 C-6.93 4 -13.86 4 -21 4 C-21.33 3.34 -21.66 2.68 -22 2 C-17.38 2 -12.76 2 -8 2 C-8 1.01 -8 0.02 -8 -1 C-3.375 -2.25 -3.375 -2.25 0 0 Z " fill="#787979" transform="translate(113,86)"/>
<path d="M0 0 C0.66 0.66 1.32 1.32 2 2 C1.21625 2.886875 0.4325 3.77375 -0.375 4.6875 C-2.60117647 7.33771009 -3.72842355 9.77867299 -5 13 C-7.125 15.3125 -7.125 15.3125 -9 17 C-10.19834711 11.72727273 -10.19834711 11.72727273 -9.4375 8.9375 C-7.35177158 6.12630082 -4.73373133 4.16420397 -2 2 C-1.34 1.34 -0.68 0.68 0 0 Z " fill="#818182" transform="translate(55,34)"/>
<path d="M0 0 C0.66 0 1.32 0 2 0 C2.66 0.66 3.32 1.32 4 2 C4.99 2 5.98 2 7 2 C6.01 3.485 6.01 3.485 5 5 C4.34 5 3.68 5 3 5 C2.7525 5.639375 2.505 6.27875 2.25 6.9375 C1 9 1 9 -1.125 9.75 C-2.053125 9.87375 -2.053125 9.87375 -3 10 C-3.66 9.01 -4.32 8.02 -5 7 C-4.21654285 5.82780457 -3.42297164 4.66236332 -2.625 3.5 C-2.18414062 2.8503125 -1.74328125 2.200625 -1.2890625 1.53125 C-0.65097656 0.77328125 -0.65097656 0.77328125 0 0 Z " fill="#A9A9A9" transform="translate(85,31)"/>
<path d="M0 0 C2.1875 0.3125 2.1875 0.3125 4 1 C4.38218767 2.65614657 4.71395102 4.32457024 5 6 C4 7 4 7 1.71484375 7.09765625 C0.34005859 7.08025391 0.34005859 7.08025391 -1.0625 7.0625 C-1.98160156 7.05347656 -2.90070313 7.04445313 -3.84765625 7.03515625 C-4.55792969 7.02355469 -5.26820312 7.01195312 -6 7 C-6.33 6.01 -6.66 5.02 -7 4 C-6.67 3.34 -6.34 2.68 -6 2 C-5.01 2.33 -4.02 2.66 -3 3 C-2.5875 2.484375 -2.175 1.96875 -1.75 1.4375 C-1.1725 0.963125 -0.595 0.48875 0 0 Z " fill="#747476" transform="translate(108,20)"/>
<path d="M0 0 C4 2 4 2 6 5 C5.40058594 5.08121094 4.80117187 5.16242188 4.18359375 5.24609375 C0.69476389 6.45064503 -0.43496833 9.26600829 -2.33984375 12.28515625 C-4 14 -4 14 -6.69140625 14.24609375 C-7.45324219 14.16488281 -8.21507813 14.08367187 -9 14 C-8.67 13.34 -8.34 12.68 -8 12 C-7.34 12 -6.68 12 -6 12 C-5.67 11.01 -5.34 10.02 -5 9 C-4.34 9 -3.68 9 -3 9 C-2.01 6.03 -1.02 3.06 0 0 Z " fill="#A2A3A4" transform="translate(102,61)"/>
<path d="M0 0 C2.48351743 2.48351743 2.98041975 4.66937119 4 8 C4.33 8.99 4.66 9.98 5 11 C-0.72040011 11.8320582 -6.22240116 12.12036664 -12 12 C-12 11.34 -12 10.68 -12 10 C-9.44564711 8.39170374 -8.45488483 7.90014723 -5.4375 8.5625 C-3.01141807 9.27059254 -3.01141807 9.27059254 -1.1875 7.9375 C0.46306037 5.24448045 0.20628638 3.09429572 0 0 Z " fill="#757576" transform="translate(39,69)"/>
<path d="M0 0 C1.32 0 2.64 0 4 0 C4.08131463 1.43655854 4.13933559 2.8744483 4.1875 4.3125 C4.22230469 5.11300781 4.25710937 5.91351563 4.29296875 6.73828125 C3.93801608 9.47851584 3.10633718 10.29171079 1 12 C0.34 11.34 -0.32 10.68 -1 10 C-1 9.01 -1 8.02 -1 7 C-1.66 6.34 -2.32 5.68 -3 5 C-1.125 1.125 -1.125 1.125 0 0 Z " fill="#8B8B8B" transform="translate(57,61)"/>
<path d="M0 0 C3.3 0 6.6 0 10 0 C6.67692308 3.93846154 6.67692308 3.93846154 3.25 4.25 C2.5075 4.1675 1.765 4.085 1 4 C1 4.33 1 4.66 1 5 C-1.97 5 -4.94 5 -8 5 C-8.33 4.34 -8.66 3.68 -9 3 C-5.92382812 2.70703125 -5.92382812 2.70703125 -2.84765625 2.4140625 C-2.23792969 2.27742188 -1.62820312 2.14078125 -1 2 C-0.67 1.34 -0.34 0.68 0 0 Z " fill="#666768" transform="translate(39,85)"/>
<path d="M0 0 C2 3 2 3 1.625 5.6875 C1.41875 6.450625 1.2125 7.21375 1 8 C0.01 7.34 -0.98 6.68 -2 6 C-4.30947912 5.9037717 -6.53883623 6.06515381 -8.84375 6.22265625 C-11.5401125 5.94422751 -12.32280679 5.05886218 -14 3 C-13.67 2.34 -13.34 1.68 -13 1 C-11.68 1 -10.36 1 -9 1 C-9 1.66 -9 2.32 -9 3 C-5.58357241 3.25015873 -5.58357241 3.25015873 -2 3 C-1.34 2.01 -0.68 1.02 0 0 Z " fill="#707173" transform="translate(106,73)"/>
<path d="M0 0 C6.93 0 13.86 0 21 0 C21 0.33 21 0.66 21 1 C17.37 1 13.74 1 10 1 C9.67 2.32 9.34 3.64 9 5 C8.21625 4.814375 7.4325 4.62875 6.625 4.4375 C4.02910225 3.74037734 4.02910225 3.74037734 2 5 C2.33 4.01 2.66 3.02 3 2 C2.34 2 1.68 2 1 2 C0.34 2.66 -0.32 3.32 -1 4 C-0.67 2.68 -0.34 1.36 0 0 Z " fill="#BBBBBB" transform="translate(20,20)"/>
<path d="M0 0 C1.47784077 2.95568155 1 5.69724174 1 9 C-0.65 9.66 -2.3 10.32 -4 11 C-4.66 10.34 -5.32 9.68 -6 9 C-5.2884375 8.38125 -5.2884375 8.38125 -4.5625 7.75 C-2.81264784 5.79016559 -2.56788417 4.51491559 -2 2 C-1.34 1.34 -0.68 0.68 0 0 Z M-7 5 C-6.34 5.66 -5.68 6.32 -5 7 C-5.99 7 -6.98 7 -8 7 C-7.67 6.34 -7.34 5.68 -7 5 Z " fill="#7F7F7F" transform="translate(57,67)"/>
<path d="M0 0 C0.33 0 0.66 0 1 0 C1.33 2.31 1.66 4.62 2 7 C3.32 6.34 4.64 5.68 6 5 C4.66666667 7.66666667 3.33333333 10.33333333 2 13 C1.67 13 1.34 13 1 13 C0.67 16.63 0.34 20.26 0 24 C-0.33 24 -0.66 24 -1 24 C-1.10466648 15.92905177 -1.03387512 8.0125322 0 0 Z " fill="#9E9FA1" transform="translate(24,40)"/>
<path d="M0 0 C0.99 0.33 1.98 0.66 3 1 C3 1.33 3 1.66 3 2 C7.33085971 3.29925791 11.51474352 4.343621 16 5 C16 5.33 16 5.66 16 6 C13.54137599 6.05383848 11.0839245 6.09359038 8.625 6.125 C7.57699219 6.15013672 7.57699219 6.15013672 6.5078125 6.17578125 C4.67102514 6.19344267 2.83398037 6.10303261 1 6 C0.34 5.34 -0.32 4.68 -1 4 C-0.625 1.875 -0.625 1.875 0 0 Z " fill="#636466" transform="translate(21,21)"/>
<path d="M0 0 C4.49652778 -0.36458333 4.49652778 -0.36458333 6.8125 1.3125 C8 3 8 3 8 6 C5.5 8.1875 5.5 8.1875 3 10 C3 8.02 3 6.04 3 4 C2.34 4 1.68 4 1 4 C0.67 2.68 0.34 1.36 0 0 Z " fill="#868789" transform="translate(87,30)"/>
<path d="M0 0 C1.65 0.99 3.3 1.98 5 3 C2.33333333 5.66666667 -0.33333333 8.33333333 -3 11 C-3.66 10.34 -4.32 9.68 -5 9 C-2.25 4.125 -2.25 4.125 0 3 C0 2.01 0 1.02 0 0 Z " fill="#808181" transform="translate(55,57)"/>
<path d="M0 0 C0.33 0 0.66 0 1 0 C1.33 2.97 1.66 5.94 2 9 C0.948125 9.3403125 0.948125 9.3403125 -0.125 9.6875 C-3.69343613 11.31656867 -6.06514511 13.40640731 -9 16 C-7.66338822 13.04912279 -6.15046114 10.91682966 -3.9375 8.5625 C-1.47729639 5.78504386 -0.23131898 3.81676309 0 0 Z " fill="#6C6D6D" transform="translate(39,32)"/>
<path d="M0 0 C2.64 0 5.28 0 8 0 C7.67 1.32 7.34 2.64 7 4 C5.02 4.33 3.04 4.66 1 5 C0.67 3.35 0.34 1.7 0 0 Z " fill="#8D8E8F" transform="translate(19,84)"/>
<path d="M0 0 C0 3.84683138 -1.02333195 4.45590742 -3.6875 7.125 C-4.37199219 7.82882813 -5.05648438 8.53265625 -5.76171875 9.2578125 C-8.23017494 11.17915885 -9.92585464 11.64466971 -13 12 C-8.87675353 7.74790208 -4.48717034 3.86364295 0 0 Z " fill="#939393" transform="translate(37,55)"/>
<path d="M0 0 C2.64 0 5.28 0 8 0 C7.34 1.32 6.68 2.64 6 4 C5.01 4 4.02 4 3 4 C3.33 3.67 3.66 3.34 4 3 C3.34 2.67 2.68 2.34 2 2 C2 3.65 2 5.3 2 7 C0.35 7 -1.3 7 -3 7 C-2.690625 6.401875 -2.38125 5.80375 -2.0625 5.1875 C-0.89790296 2.91043228 -0.89790296 2.91043228 0 0 Z " fill="#999A9B" transform="translate(100,20)"/>
<path d="M0 0 C2.97 0 5.94 0 9 0 C9 0.33 9 0.66 9 1 C7.35 1 5.7 1 4 1 C4.33 1.99 4.66 2.98 5 4 C2.47946405 5.26026798 1.1457902 4.91874445 -1.625 4.5625 C-2.85089844 4.40974609 -2.85089844 4.40974609 -4.1015625 4.25390625 C-5.04128906 4.12822266 -5.04128906 4.12822266 -6 4 C-5.67 3.34 -5.34 2.68 -5 2 C-2.4375 1.375 -2.4375 1.375 0 1 C0 0.67 0 0.34 0 0 Z " fill="#A5A6A6" transform="translate(101,84)"/>
<path d="M0 0 C0.33 0.66 0.66 1.32 1 2 C-3.62 2 -8.24 2 -13 2 C-13.33 1.34 -13.66 0.68 -14 0 C-9.37122006 -1.34383934 -4.66534956 -1.10850248 0 0 Z " fill="#4C4E50" transform="translate(91,88)"/>
<path d="M0 0 C4.62 0 9.24 0 14 0 C13.67 0.66 13.34 1.32 13 2 C11.07421875 2.34375 11.07421875 2.34375 8.6875 2.5 C5.29377299 2.72437865 2.96866291 3.31526681 0 5 C0 3.35 0 1.7 0 0 Z " fill="#9B9C9E" transform="translate(21,31)"/>
<path d="M0 0 C0.66 0.33 1.32 0.66 2 1 C-0.31 3.31 -2.62 5.62 -5 8 C-5.66 7.67 -6.32 7.34 -7 7 C-4.69 4.69 -2.38 2.38 0 0 Z M-9 7 C-8.34 7.66 -7.68 8.32 -7 9 C-8.32 9.99 -9.64 10.98 -11 12 C-11 9 -11 9 -9 7 Z " fill="#919191" transform="translate(37,49)"/>
<path d="M0 0 C1.4540625 0.0309375 1.4540625 0.0309375 2.9375 0.0625 C1.2875 2.0425 -0.3625 4.0225 -2.0625 6.0625 C-3.0525 5.7325 -4.0425 5.4025 -5.0625 5.0625 C-3.9375 0.08035714 -3.9375 0.08035714 0 0 Z " fill="#6E6E6E" transform="translate(28.0625,32.9375)"/>
<path d="M0 0 C2.05078125 0.03255208 4.1015625 0.06510417 6.15234375 0.09765625 C5.49234375 0.75765625 4.83234375 1.41765625 4.15234375 2.09765625 C3.16234375 2.09765625 2.17234375 2.09765625 1.15234375 2.09765625 C0.82234375 3.08765625 0.49234375 4.07765625 0.15234375 5.09765625 C-2.41015625 6.28515625 -2.41015625 6.28515625 -4.84765625 7.09765625 C-2.62675581 0.13883487 -2.62675581 0.13883487 0 0 Z " fill="#A8A8A9" transform="translate(86.84765625,19.90234375)"/>
<path d="M0 0 C1.875 0.25 1.875 0.25 4 1 C5.25 3.0625 5.25 3.0625 6 5 C4.125 5.625 4.125 5.625 2 6 C1.34 5.34 0.68 4.68 0 4 C0 2.68 0 1.36 0 0 Z " fill="#878889" transform="translate(42,31)"/>
<path d="M0 0 C1.32 0.66 2.64 1.32 4 2 C3.34 2.66 2.68 3.32 2 4 C2.66 4.66 3.32 5.32 4 6 C1.03 6 -1.94 6 -5 6 C-4 4 -4 4 -1 3 C-0.67 2.01 -0.34 1.02 0 0 Z " fill="#78797A" transform="translate(27,84)"/>
<path d="M0 0 C0.66 0.33 1.32 0.66 2 1 C1.01 2.485 1.01 2.485 0 4 C-0.66 4 -1.32 4 -2 4 C-2.2475 4.639375 -2.495 5.27875 -2.75 5.9375 C-4 8 -4 8 -6.125 8.75 C-7.053125 8.87375 -7.053125 8.87375 -8 9 C-7.67 8.34 -7.34 7.68 -7 7 C-6.34 7 -5.68 7 -5 7 C-4.731875 6.401875 -4.46375 5.80375 -4.1875 5.1875 C-3.01506533 3.02775192 -1.80630718 1.64209744 0 0 Z " fill="#B1B1B1" transform="translate(90,32)"/>
<path d="M0 0 C0.33 0.99 0.66 1.98 1 3 C-1.475 4.485 -1.475 4.485 -4 6 C-4.66 5.34 -5.32 4.68 -6 4 C-5.67 3.01 -5.34 2.02 -5 1 C-3 0 -3 0 0 0 Z " fill="#848485" transform="translate(66,71)"/>
<path d="M0 0 C0.99 0 1.98 0 3 0 C3.33 1.32 3.66 2.64 4 4 C2.02 4.99 0.04 5.98 -2 7 C-2.33 6.34 -2.66 5.68 -3 5 C-1.75 2.375 -1.75 2.375 0 0 Z " fill="#999999" transform="translate(52,57)"/>
<path d="M0 0 C0.66 0 1.32 0 2 0 C1.25 6.75 1.25 6.75 -1 9 C-3.125 8.625 -3.125 8.625 -5 8 C-4.0409375 7.13375 -4.0409375 7.13375 -3.0625 6.25 C-1.01776132 4.01937599 -0.41794801 2.92563609 0 0 Z " fill="#898A8B" transform="translate(105,68)"/>
<path d="M0 0 C-1.31224548 3.93673644 -2.91910327 6.22719294 -6 9 C-6.8125 7.3125 -6.8125 7.3125 -7 5 C-2.79545455 0 -2.79545455 0 0 0 Z " fill="#878788" transform="translate(52,42)"/>
<path d="M0 0 C1.67542976 0.28604898 3.34385343 0.61781233 5 1 C5 1.99 5 2.98 5 4 C3.02 4.99 3.02 4.99 1 6 C0.34 4.35 -0.32 2.7 -1 1 C-0.67 0.67 -0.34 0.34 0 0 Z " fill="#8C8D8F" transform="translate(75,29)"/>
<path d="M0 0 C1.32 0.66 2.64 1.32 4 2 C2.68 3.65 1.36 5.3 0 7 C-1.65 6.67 -3.3 6.34 -5 6 C-3.68 5.67 -2.36 5.34 -1 5 C-0.67 3.35 -0.34 1.7 0 0 Z " fill="#7C7D7F" transform="translate(97,20)"/>
<path d="M0 0 C1.32 0.33 2.64 0.66 4 1 C3.01 1.495 3.01 1.495 2 2 C1.34786708 4.02463255 1.34786708 4.02463255 1 6 C-0.32 5.67 -1.64 5.34 -3 5 C-2.01 3.35 -1.02 1.7 0 0 Z " fill="#848586" transform="translate(81,21)"/>
<path d="M0 0 C0.99 0.33 1.98 0.66 3 1 C3 1.33 3 1.66 3 2 C3.9793879 3.02019573 4.97895449 4.02149805 6 5 C4.02 5 2.04 5 0 5 C-0.5625 3.0625 -0.5625 3.0625 -1 1 C-0.67 0.67 -0.34 0.34 0 0 Z " fill="#878788" transform="translate(21,21)"/>
<path d="M0 0 C0.66 0 1.32 0 2 0 C0.375 5.75 0.375 5.75 -3 8 C-3 6.68 -3 5.36 -3 4 C-2.34 4 -1.68 4 -1 4 C-0.67 2.68 -0.34 1.36 0 0 Z " fill="#9FA0A2" transform="translate(24,70)"/>
<path d="M0 0 C-0.99 1.485 -0.99 1.485 -2 3 C-5.125 3.1875 -5.125 3.1875 -8 3 C-6.14481495 -0.71037009 -3.79223618 -1.26407873 0 0 Z " fill="#979797" transform="translate(91,24)"/>
<path d="M0 0 C3.625 -0.1875 3.625 -0.1875 7 0 C4.23776722 2.76223278 1.79293383 2.57856291 -2 3 C-1.34 2.01 -0.68 1.02 0 0 Z " fill="#626263" transform="translate(53,85)"/>
<path d="M0 0 C3.6875 0.875 3.6875 0.875 7 2 C6.67 2.66 6.34 3.32 6 4 C3.03 4 0.06 4 -3 4 C-3 3.34 -3 2.68 -3 2 C-2.01 1.34 -1.02 0.68 0 0 Z " fill="#5F6062" transform="translate(30,77)"/>
<path d="M0 0 C0.33 1.32 0.66 2.64 1 4 C0.01 4.66 -0.98 5.32 -2 6 C-2.66 5.34 -3.32 4.68 -4 4 C-2.68 2.68 -1.36 1.36 0 0 Z " fill="#B0B0B0" transform="translate(89,57)"/>
</svg>
